<?xml version="1.0" standalone="no"?>
<!DOCTYPE svg PUBLIC "-//W3C//DTD SVG 20010904//EN"
 "http://www.w3.org/TR/2001/REC-SVG-20010904/DTD/svg10.dtd">
<svg version="1.0" xmlns="http://www.w3.org/2000/svg"
 width="700.000000pt" height="700.000000pt" viewBox="0 0 700.000000 700.000000"
 preserveAspectRatio="xMidYMid meet">
<metadata>
Created by potrace 1.14, written by Peter Selinger 2001-2017
</metadata>
<g transform="translate(0.000000,700.000000) scale(0.100000,-0.100000)"
fill="#000000" stroke="none">
<path d="M2565 5559 c-670 -41 -1075 -96 -1585 -214 -256 -60 -360 -96 -360
-126 0 -21 142 -189 164 -195 12 -3 86 13 166 36 268 78 939 201 1280 234 635
63 1684 73 2255 21 582 -52 1151 -153 1589 -280 84 -24 89 -25 102 -8 39 49
147 213 143 216 -10 9 -278 82 -433 118 -237 56 -527 104 -836 139 -528 60
-575 62 -1495 65 -467 2 -913 -1 -990 -6z"/>
<path d="M2920 5069 c-899 -32 -967 -38 -1435 -115 -192 -32 -565 -133 -565
-153 0 -14 99 -110 176 -171 40 -32 115 -81 166 -108 83 -45 330 -162 342
-162 2 0 10 17 16 38 32 100 97 170 211 227 100 51 160 69 289 89 133 21 440
40 452 28 17 -17 38 -113 173 -787 129 -644 281 -1392 549 -2705 165 -802 168
-820 175 -820 3 0 25 96 49 213 23 116 68 331 98 477 30 146 127 623 214 1060
174 868 357 1772 445 2195 31 149 60 290 64 313 5 24 14 49 20 55 13 13 331
-7 459 -29 114 -20 284 -77 345 -116 74 -47 136 -131 152 -206 8 -39 2 -40
168 34 131 58 227 112 332 187 77 54 195 165 195 183 0 15 -32 28 -152 63
-461 134 -922 187 -1784 207 l-290 7 -116 -134 c-63 -74 -135 -156 -160 -183
l-44 -49 -158 186 c-86 103 -160 186 -164 185 -4 0 -104 -5 -222 -9z"/>
</g>
</svg>
